<?xml version="1.0" encoding="UTF-8" standalone="no"?>
<!DOCTYPE svg PUBLIC "-//W3C//DTD SVG 1.1//EN" "http://www.w3.org/Graphics/SVG/1.1/DTD/svg11.dtd">
<svg xmlns="http://www.w3.org/2000/svg" version="1.1" viewBox="0 0 1672 627" width="1672.0pt" height="627.0pt">
<path d="M 0.00 0.00 L 1672.00 0.00 L 1672.00 627.00 L 0.00 627.00 L 0.00 0.00 Z" fill="#ffffff" />
<path d="M 64.95 52.24 C 100.63 52.24 136.36 52.29 172.03 52.22 C 173.20 52.34 175.12 52.00 175.96 52.98 C 189.29 66.26 202.49 79.76 215.86 93.01 C 215.97 150.91 215.97 208.84 215.86 266.75 C 202.20 280.14 188.83 293.83 175.19 307.25 C 137.80 307.19 100.40 307.27 63.01 307.21 C 49.51 293.63 35.95 280.11 22.40 266.59 C 22.34 209.71 22.42 152.82 22.35 95.95 C 22.47 94.61 22.14 93.39 23.22 92.39 C 35.73 79.68 48.57 66.81 61.10 54.09 C 62.36 52.87 63.05 52.07 64.95 52.24 Z" fill="#002147" />
<path d="M 234.80 52.28 C 268.35 52.21 301.90 52.27 335.44 52.25 C 335.45 71.31 335.45 90.36 335.44 109.41 C 330.38 109.42 325.33 109.42 320.27 109.41 C 320.25 156.31 320.26 203.20 320.26 250.10 C 335.45 250.11 350.63 250.10 365.82 250.10 C 365.88 245.73 365.77 241.37 365.81 237.00 C 365.73 235.61 366.15 234.64 367.75 234.79 C 386.21 234.79 404.79 234.78 423.24 234.80 C 423.26 258.94 423.25 283.08 423.25 307.22 C 360.43 307.24 297.62 307.24 234.81 307.22 C 234.80 288.19 234.81 269.17 234.80 250.14 C 239.90 250.08 245.00 250.11 250.10 250.10 C 250.10 203.21 250.11 156.31 250.10 109.42 C 245.00 109.41 239.90 109.43 234.81 109.39 C 234.80 90.36 234.81 71.32 234.80 52.28 Z" fill="#002147" />
<path d="M 436.28 52.33 C 486.62 52.13 537.59 52.33 588.00 52.23 C 589.93 52.23 591.90 52.15 593.82 52.37 C 595.88 53.81 597.55 55.89 599.35 57.65 C 610.65 69.02 621.90 80.46 633.21 91.80 C 634.33 92.94 634.59 93.35 634.58 94.97 C 634.58 152.18 634.60 209.40 634.57 266.61 C 621.02 280.13 607.48 293.66 593.97 307.22 C 541.38 307.24 488.79 307.23 436.20 307.23 C 436.19 288.19 436.20 269.15 436.20 250.11 C 441.28 250.10 446.36 250.11 451.44 250.10 C 451.44 203.21 451.44 156.31 451.44 109.42 C 446.36 109.41 441.28 109.42 436.20 109.41 C 436.26 90.42 436.08 71.31 436.28 52.33 Z" fill="#002147" />
<path d="M 782.97 52.25 C 819.80 52.27 856.73 52.21 893.54 52.28 C 907.04 66.07 920.85 79.59 934.27 93.46 C 934.10 111.72 934.27 129.99 934.19 148.25 C 934.27 148.99 934.02 149.64 933.45 150.19 C 910.46 150.31 887.28 150.19 864.27 150.25 C 864.14 139.46 864.24 128.68 864.22 117.89 C 861.59 115.04 858.93 112.22 856.25 109.42 C 843.77 109.42 831.30 109.38 818.82 109.44 C 816.09 112.19 813.35 114.94 810.65 117.73 C 810.68 159.18 810.62 200.64 810.68 242.09 C 813.46 244.74 816.22 247.41 818.96 250.10 C 831.34 250.11 843.71 250.10 856.08 250.10 C 858.81 247.40 861.50 244.67 864.20 241.94 C 864.23 234.01 864.20 226.09 864.22 218.16 C 857.75 218.04 851.28 218.13 844.81 218.09 C 844.80 200.67 844.80 183.24 844.81 165.82 C 874.60 165.80 904.40 165.80 934.20 165.82 C 934.25 199.35 934.12 232.88 934.26 266.41 C 920.79 280.17 907.08 293.71 893.42 307.27 C 856.04 307.19 818.67 307.23 781.30 307.25 C 767.70 293.70 754.11 280.14 740.58 266.52 C 740.67 208.73 740.56 150.95 740.64 93.16 C 753.74 80.08 766.75 66.90 779.75 53.72 C 780.84 52.65 781.35 52.15 782.97 52.25 Z" fill="#002147" />
<path d="M 995.95 52.24 C 1031.96 52.26 1068.04 52.26 1104.05 52.24 C 1105.75 52.25 1106.18 52.35 1107.38 53.57 C 1120.00 66.29 1132.61 79.08 1145.26 91.77 C 1146.35 92.88 1146.73 93.35 1146.67 94.96 C 1146.66 152.13 1146.70 209.45 1146.65 266.60 C 1133.08 280.11 1119.54 293.65 1106.03 307.22 C 1068.63 307.26 1031.24 307.20 993.85 307.25 C 980.23 293.80 966.84 280.13 953.19 266.73 C 953.09 208.83 953.08 150.91 953.19 93.02 C 966.35 79.89 979.41 66.65 992.52 53.47 C 993.56 52.27 994.44 52.28 995.95 52.24 Z" fill="#002147" />
<path d="M 1225.71 52.29 C 1270.90 52.21 1316.09 52.26 1361.27 52.27 C 1361.27 71.31 1361.27 90.36 1361.27 109.41 C 1356.99 109.41 1352.70 109.41 1348.42 109.44 C 1367.19 156.28 1385.62 203.35 1404.49 250.14 C 1409.54 250.07 1414.59 250.11 1419.64 250.11 C 1419.63 269.15 1419.64 288.19 1419.63 307.22 C 1386.99 307.23 1354.35 307.25 1321.71 307.21 C 1321.70 288.20 1321.73 269.18 1321.70 250.17 C 1324.47 250.11 1327.24 250.10 1330.01 250.08 C 1328.79 246.15 1327.61 242.21 1326.34 238.30 C 1303.84 238.31 1281.34 238.29 1258.84 238.31 C 1257.53 242.23 1256.19 246.13 1255.00 250.08 C 1257.71 250.10 1260.43 250.11 1263.14 250.11 C 1263.14 269.15 1263.15 288.19 1263.14 307.23 C 1230.62 307.23 1198.10 307.24 1165.58 307.22 C 1165.57 288.19 1165.59 269.16 1165.58 250.13 C 1170.75 250.03 1175.90 250.30 1181.07 249.87 C 1182.26 246.49 1183.57 243.17 1184.92 239.86 C 1202.20 196.40 1219.49 152.88 1236.77 109.44 C 1233.09 109.42 1229.40 109.41 1225.72 109.39 C 1225.71 90.36 1225.72 71.32 1225.71 52.29 Z" fill="#002147" />
<path d="M 1434.02 52.25 C 1505.23 52.25 1576.43 52.25 1647.64 52.25 C 1647.59 76.57 1647.75 100.90 1647.56 125.21 C 1628.54 125.19 1609.53 125.20 1590.52 125.20 C 1590.42 119.94 1590.47 114.69 1590.46 109.42 C 1585.38 109.41 1580.29 109.42 1575.21 109.41 C 1575.20 156.31 1575.21 203.20 1575.21 250.10 C 1580.30 250.11 1585.40 250.10 1590.49 250.10 C 1590.49 269.15 1590.49 288.19 1590.49 307.23 C 1556.84 307.23 1523.19 307.24 1489.54 307.22 C 1489.53 288.19 1489.54 269.15 1489.53 250.12 C 1494.78 250.09 1500.03 250.11 1505.28 250.09 C 1505.29 203.21 1505.27 156.33 1505.28 109.46 C 1500.05 109.39 1494.81 109.41 1489.57 109.43 C 1489.56 114.69 1489.63 119.95 1489.50 125.21 C 1470.50 125.19 1451.50 125.19 1432.50 125.21 C 1432.33 101.47 1432.48 77.73 1432.42 53.99 C 1432.14 52.55 1432.68 51.97 1434.02 52.25 Z" fill="#002147" />
<path d="M 100.59 109.60 C 112.89 109.14 125.49 109.58 137.83 109.39 C 140.47 112.12 143.08 114.87 145.73 117.58 C 145.73 159.16 145.83 200.75 145.68 242.33 C 143.04 244.89 140.46 247.52 137.85 250.11 C 125.57 250.00 113.21 250.29 100.95 249.98 C 97.80 247.89 95.30 244.70 92.43 242.20 C 92.38 200.68 92.43 159.16 92.41 117.63 C 95.20 115.03 97.68 112.05 100.59 109.60 Z" fill="#ffffff" />
<path d="M 556.42 109.44 C 559.10 112.20 561.83 114.92 564.56 117.64 C 564.55 159.16 564.59 200.68 564.54 242.19 C 561.66 244.68 559.16 247.85 556.02 249.98 C 544.56 250.28 532.99 250.01 521.50 250.10 C 521.50 203.21 521.50 156.31 521.50 109.42 C 533.14 109.42 544.78 109.39 556.42 109.44 Z" fill="#ffffff" />
<path d="M 1031.45 109.56 C 1043.78 109.22 1056.30 109.49 1068.67 109.44 C 1071.28 112.21 1073.93 114.94 1076.59 117.66 C 1076.58 159.17 1076.63 200.67 1076.56 242.18 C 1073.79 244.59 1071.36 248.17 1068.22 249.99 C 1056.03 250.30 1043.76 249.94 1031.56 250.16 C 1028.75 247.62 1026.07 244.95 1023.32 242.33 C 1023.18 200.75 1023.28 159.14 1023.26 117.55 C 1026.07 114.98 1028.52 111.98 1031.45 109.56 Z" fill="#ffffff" />
<path d="M 1292.25 149.22 C 1298.15 162.42 1303.08 176.11 1308.66 189.46 C 1297.88 189.53 1287.10 189.50 1276.32 189.48 C 1281.57 176.04 1287.31 162.77 1292.25 149.22 Z" fill="#ffffff" />
<path d="M 23.79 363.69 C 78.61 363.62 133.44 363.68 188.27 363.66 C 188.28 382.28 188.27 400.89 188.27 419.50 C 173.70 419.51 159.13 419.51 144.56 419.50 C 144.56 415.76 144.56 412.03 144.56 408.29 C 140.67 408.28 136.78 408.28 132.88 408.32 C 132.88 444.28 132.88 480.25 132.89 516.22 C 136.81 516.23 140.73 516.23 144.65 516.23 C 144.65 531.09 144.64 545.95 144.65 560.81 C 118.95 560.82 93.25 560.81 67.54 560.81 C 67.54 545.95 67.54 531.09 67.54 516.23 C 71.52 516.23 75.50 516.23 79.48 516.23 C 79.50 480.25 79.49 444.27 79.49 408.29 C 75.53 408.28 71.56 408.28 67.60 408.30 C 67.61 412.04 67.60 415.77 67.60 419.50 C 52.99 419.47 38.38 419.57 23.78 419.45 C 23.79 400.87 23.78 382.28 23.79 363.69 Z" fill="#002147" />
<path d="M 198.17 363.66 C 238.28 363.63 278.39 363.71 318.50 363.63 C 328.96 374.07 339.29 384.65 349.62 395.22 C 349.55 411.93 349.66 428.64 349.56 445.34 C 345.29 449.58 341.08 453.89 336.80 458.12 C 340.87 462.59 345.69 466.55 349.49 471.21 C 349.76 486.14 349.51 501.27 349.60 516.23 C 353.51 516.22 357.42 516.23 361.33 516.26 C 361.32 531.10 361.32 545.94 361.33 560.78 C 339.59 560.86 317.86 560.79 296.13 560.82 C 296.13 536.28 296.12 511.74 296.13 487.20 C 294.02 485.02 291.90 482.86 289.75 480.71 C 280.94 480.73 272.12 480.71 263.31 480.72 C 263.28 492.56 263.30 504.39 263.30 516.23 C 267.14 516.23 270.97 516.23 274.81 516.23 C 274.81 531.09 274.81 545.95 274.81 560.81 C 249.26 560.82 223.72 560.82 198.17 560.81 C 198.17 545.95 198.17 531.09 198.17 516.23 C 202.02 516.23 205.87 516.23 209.71 516.23 C 209.72 480.25 209.72 444.27 209.71 408.29 C 205.87 408.29 202.02 408.29 198.17 408.29 C 198.17 393.41 198.17 378.54 198.17 363.66 Z" fill="#002147" />
<path d="M 419.58 363.67 C 454.11 363.66 488.63 363.63 523.16 363.68 C 523.16 378.54 523.16 393.40 523.16 408.26 C 519.86 408.29 516.57 408.29 513.27 408.32 C 527.56 444.27 541.73 480.27 555.99 516.23 C 559.88 516.23 563.77 516.23 567.65 516.23 C 567.65 531.09 567.65 545.95 567.65 560.81 C 542.69 560.77 517.72 560.91 492.76 560.74 C 492.78 545.93 492.78 531.13 492.76 516.32 C 494.86 516.29 496.97 516.21 499.08 516.17 C 498.26 513.16 497.36 510.18 496.41 507.21 C 479.22 507.25 462.02 507.16 444.83 507.26 C 443.82 510.22 442.86 513.19 441.97 516.19 C 444.03 516.22 446.10 516.24 448.16 516.26 C 448.16 531.11 448.16 545.95 448.16 560.79 C 423.31 560.83 398.45 560.83 373.59 560.79 C 373.60 545.95 373.60 531.10 373.59 516.25 C 377.48 516.23 381.38 516.22 385.27 516.23 C 399.50 480.26 413.78 444.31 427.94 408.31 C 425.16 408.29 422.37 408.29 419.59 408.28 C 419.58 393.41 419.58 378.54 419.58 363.67 Z" fill="#002147" />
<path d="M 608.84 363.71 C 637.36 363.58 665.95 363.73 694.48 363.63 C 704.89 374.02 715.15 384.55 725.51 394.98 C 725.57 409.62 725.52 424.26 725.54 438.90 C 707.76 438.91 689.98 438.91 672.19 438.90 C 672.21 430.89 672.15 422.87 672.23 414.85 C 670.23 412.57 668.15 410.39 665.98 408.27 C 656.47 408.34 646.96 408.22 637.45 408.34 C 635.45 410.45 633.39 412.52 631.31 414.57 C 631.19 445.39 631.34 476.21 631.24 507.03 C 630.39 511.31 635.21 513.46 637.67 516.26 C 647.06 516.20 656.45 516.24 665.84 516.24 C 668.09 514.10 670.25 511.87 672.29 509.53 C 672.09 501.78 672.24 494.03 672.20 486.27 C 689.98 486.28 707.76 486.27 725.53 486.28 C 725.53 500.63 725.55 514.99 725.52 529.34 C 715.28 539.65 704.88 550.34 694.64 560.56 C 691.84 561.07 688.84 560.77 686.00 560.82 C 660.98 560.82 635.95 560.81 610.93 560.83 C 609.33 560.81 608.60 560.79 607.50 559.55 C 597.57 549.43 587.50 539.45 577.66 529.26 C 577.69 484.67 577.72 440.07 577.64 395.48 C 588.02 384.88 598.37 374.21 608.84 363.71 Z" fill="#002147" />
<path d="M 739.39 363.66 C 765.03 363.67 790.67 363.63 816.31 363.68 C 816.31 378.54 816.31 393.41 816.31 408.27 C 812.40 408.29 808.48 408.29 804.57 408.29 C 804.61 417.52 804.48 426.76 804.65 435.98 C 813.82 426.76 822.97 417.51 832.21 408.35 C 830.54 408.32 828.87 408.29 827.20 408.27 C 827.20 393.40 827.20 378.53 827.20 363.66 C 858.01 363.66 888.81 363.66 919.62 363.66 C 919.63 378.54 919.63 393.41 919.61 408.29 C 914.24 408.30 908.86 408.26 903.49 408.32 C 887.91 424.13 872.23 439.85 856.66 455.66 C 854.60 457.59 852.74 459.69 850.86 461.79 C 868.96 479.90 886.95 498.11 905.04 516.24 C 909.90 516.22 914.76 516.23 919.62 516.23 C 919.62 531.09 919.62 545.95 919.62 560.81 C 888.82 560.82 858.01 560.81 827.20 560.81 C 827.20 545.96 827.20 531.10 827.20 516.24 C 828.94 516.23 830.69 516.21 832.43 516.19 C 826.14 509.98 819.84 503.77 813.64 497.46 C 810.58 500.54 807.57 503.67 804.57 506.80 C 804.57 509.94 804.57 513.08 804.58 516.23 C 808.49 516.22 812.40 516.22 816.32 516.27 C 816.31 531.10 816.30 545.94 816.32 560.77 C 790.67 560.88 765.03 560.79 739.38 560.81 C 739.38 545.95 739.38 531.09 739.38 516.23 C 743.27 516.23 747.16 516.23 751.04 516.23 C 751.05 480.25 751.05 444.27 751.04 408.29 C 747.16 408.29 743.27 408.29 739.39 408.29 C 739.37 393.41 739.38 378.54 739.39 363.66 Z" fill="#002147" />
<path d="M 1026.84 363.71 C 1055.36 363.58 1083.95 363.73 1112.48 363.63 C 1122.89 374.02 1133.15 384.55 1143.51 394.98 C 1143.57 409.62 1143.52 424.26 1143.54 438.90 C 1125.76 438.91 1107.98 438.91 1090.19 438.90 C 1090.21 430.89 1090.15 422.87 1090.23 414.85 C 1088.23 412.57 1086.15 410.39 1083.98 408.27 C 1074.47 408.34 1064.96 408.22 1055.45 408.34 C 1053.45 410.45 1051.39 412.52 1049.31 414.57 C 1049.19 445.39 1049.34 476.21 1049.24 507.03 C 1048.39 511.31 1053.21 513.46 1055.67 516.26 C 1065.06 516.20 1074.45 516.24 1083.84 516.24 C 1086.09 514.10 1088.25 511.87 1090.29 509.53 C 1090.09 501.78 1090.24 494.03 1090.20 486.27 C 1107.98 486.28 1125.76 486.27 1143.53 486.28 C 1143.53 500.63 1143.55 514.99 1143.52 529.34 C 1133.56 539.46 1123.50 549.54 1113.62 559.69 C 1112.63 560.95 1111.50 560.74 1110.05 560.83 C 1083.03 560.81 1055.96 560.81 1028.93 560.83 C 1027.34 560.81 1026.60 560.79 1025.50 559.56 C 1015.58 549.44 1005.50 539.45 995.66 529.26 C 995.69 484.67 995.72 440.07 995.64 395.48 C 1006.02 384.88 1016.37 374.21 1026.84 363.71 Z" fill="#002147" />
<path d="M 1157.39 363.66 C 1183.02 363.68 1208.65 363.63 1234.28 363.68 C 1234.28 378.55 1234.28 393.41 1234.28 408.27 C 1230.37 408.29 1226.47 408.29 1222.56 408.30 C 1222.58 444.28 1222.56 480.25 1222.58 516.23 C 1234.22 516.23 1245.86 516.23 1257.51 516.23 C 1257.52 512.28 1257.52 508.33 1257.51 504.37 C 1272.10 504.38 1286.70 504.31 1301.29 504.41 C 1301.28 523.19 1301.27 541.98 1301.29 560.77 C 1253.32 560.88 1205.35 560.79 1157.38 560.81 C 1157.38 545.95 1157.38 531.09 1157.38 516.23 C 1161.27 516.23 1165.16 516.23 1169.04 516.23 C 1169.05 480.25 1169.05 444.27 1169.04 408.29 C 1165.16 408.29 1161.27 408.29 1157.39 408.29 C 1157.37 393.41 1157.38 378.54 1157.39 363.66 Z" fill="#002147" />
<path d="M 1311.35 363.66 C 1337.00 363.68 1362.64 363.63 1388.28 363.68 C 1388.29 378.55 1388.29 393.41 1388.28 408.27 C 1384.37 408.29 1380.45 408.29 1376.53 408.30 C 1376.54 442.24 1376.54 476.18 1376.54 510.12 C 1378.65 512.18 1380.77 514.22 1382.91 516.24 C 1392.33 516.23 1401.74 516.22 1411.15 516.24 C 1413.22 514.18 1415.28 512.11 1417.32 510.03 C 1417.32 476.12 1417.33 442.20 1417.32 408.29 C 1413.43 408.29 1409.55 408.29 1405.66 408.29 C 1405.65 393.41 1405.65 378.54 1405.66 363.66 C 1431.26 363.66 1456.87 363.66 1482.47 363.66 C 1482.48 378.54 1482.48 393.41 1482.47 408.29 C 1478.55 408.27 1474.63 408.28 1470.72 408.34 C 1470.70 448.70 1470.80 489.07 1470.67 529.42 C 1460.27 539.79 1450.08 550.35 1439.79 560.81 C 1411.84 560.82 1383.89 560.81 1355.94 560.82 C 1353.51 561.10 1352.67 559.35 1351.07 557.93 C 1341.91 548.48 1332.38 539.14 1323.33 529.63 C 1322.79 527.18 1323.08 524.50 1323.03 522.00 C 1323.05 484.10 1323.04 446.20 1323.04 408.30 C 1319.14 408.29 1315.25 408.28 1311.35 408.29 C 1311.34 393.41 1311.33 378.53 1311.35 363.66 Z" fill="#002147" />
<path d="M 1495.27 363.66 C 1535.44 363.67 1575.62 363.64 1615.80 363.68 C 1626.11 374.18 1636.48 384.61 1646.79 395.10 C 1646.78 411.85 1646.84 428.59 1646.76 445.34 C 1642.45 449.53 1638.26 453.84 1634.02 458.11 C 1638.21 462.52 1642.52 466.82 1646.78 471.17 C 1646.77 490.57 1646.88 509.98 1646.72 529.38 C 1636.35 539.72 1626.09 550.22 1615.92 560.76 C 1575.71 560.89 1535.48 560.78 1495.26 560.81 C 1495.26 545.95 1495.26 531.09 1495.26 516.23 C 1499.14 516.23 1503.02 516.23 1506.89 516.23 C 1506.90 480.25 1506.90 444.27 1506.89 408.29 C 1503.02 408.29 1499.14 408.29 1495.27 408.29 C 1495.26 393.41 1495.26 378.54 1495.27 363.66 Z" fill="#002147" />
<path d="M 263.38 408.37 C 272.14 408.27 280.99 408.13 289.73 408.44 C 292.01 410.19 294.38 412.39 296.02 414.76 C 296.32 419.78 296.03 424.84 296.12 429.86 C 293.93 431.82 291.94 434.65 289.35 436.01 C 280.69 436.27 271.98 436.03 263.30 436.11 C 263.37 426.87 263.16 417.60 263.38 408.37 Z" fill="#ffffff" />
<path d="M 1560.55 408.38 C 1569.34 408.13 1578.18 408.39 1586.98 408.27 C 1589.15 410.32 1591.27 412.40 1593.35 414.54 C 1593.30 419.63 1593.33 424.72 1593.32 429.80 C 1591.20 431.93 1589.06 434.03 1586.91 436.12 C 1578.09 436.10 1569.28 436.13 1560.47 436.11 C 1560.54 426.87 1560.33 417.61 1560.55 408.38 Z" fill="#ffffff" />
<path d="M 470.29 438.29 C 474.87 448.53 478.61 459.16 482.85 469.54 C 474.63 469.55 466.40 469.59 458.18 469.52 C 462.20 459.11 466.62 448.82 470.29 438.29 Z" fill="#ffffff" />
<path d="M 1560.48 480.72 C 1569.28 480.71 1578.08 480.73 1586.87 480.71 C 1589.04 482.78 1591.19 484.88 1593.32 487.00 C 1593.32 494.64 1593.32 502.28 1593.32 509.93 C 1591.18 512.05 1589.03 514.16 1586.86 516.24 C 1578.06 516.21 1569.27 516.24 1560.48 516.23 C 1560.47 504.39 1560.45 492.55 1560.48 480.72 Z" fill="#ffffff" />
</svg>