<?xml version="1.0" encoding="UTF-8" standalone="no"?>
<!DOCTYPE svg PUBLIC "-//W3C//DTD SVG 1.1//EN" "http://www.w3.org/Graphics/SVG/1.1/DTD/svg11.dtd">
<svg xmlns="http://www.w3.org/2000/svg" version="1.1" viewBox="0 0 989 1059" width="989.0pt" height="1059.0pt">
<path d="M 0.00 0.00 L 989.00 0.00 L 989.00 1059.00 L 0.00 1059.00 L 0.00 0.00 Z" fill="#ffffff" />
<path d="M 0.97 0.97 C 329.99 0.97 659.01 0.97 988.03 0.97 C 988.03 353.32 988.03 705.68 988.03 1058.03 C 659.01 1058.03 329.99 1058.03 0.97 1058.03 C 0.97 705.68 0.97 353.32 0.97 0.97 Z" fill="#002147" />
<path d="M 303.11 167.32 C 304.21 168.49 305.43 169.20 305.43 170.97 C 306.96 192.94 308.51 215.06 309.87 237.03 C 310.47 241.43 310.55 245.84 310.64 250.27 C 358.69 303.31 406.69 356.49 454.66 409.61 C 454.64 410.48 454.63 411.35 454.61 412.23 C 440.88 423.30 427.09 434.29 413.48 445.52 C 412.10 446.63 410.61 447.80 408.98 448.51 C 407.13 448.02 405.86 445.67 404.74 444.24 C 382.06 411.62 359.19 379.14 336.50 346.54 C 317.02 318.96 297.92 291.13 278.37 263.60 C 277.22 261.79 275.89 260.43 276.62 258.10 C 283.51 232.01 290.85 205.13 297.88 179.05 C 298.82 175.65 299.60 172.16 300.80 168.84 C 301.56 168.31 302.33 167.81 303.11 167.32 Z" fill="#ffffff" />
<path d="M 689.39 168.21 C 691.09 172.45 692.08 177.10 693.32 181.51 C 699.91 205.69 706.41 229.88 712.91 254.08 C 713.44 256.05 713.99 258.05 714.28 260.08 C 712.69 263.31 710.28 266.17 708.27 269.15 C 668.43 326.03 628.60 382.93 588.83 439.86 C 586.37 443.21 584.84 446.59 581.14 448.78 C 568.25 438.36 555.43 427.83 542.45 417.52 C 540.11 415.63 537.27 413.72 535.53 411.25 C 536.29 408.04 539.85 405.41 541.89 402.90 C 587.75 352.10 633.74 301.37 679.52 250.50 C 679.63 249.26 679.75 248.01 679.88 246.77 C 681.28 227.22 682.59 207.39 683.88 187.82 C 684.70 181.30 684.20 174.91 685.65 168.44 C 686.89 168.32 688.14 168.24 689.39 168.21 Z" fill="#ffffff" />
<path d="M 502.98 404.62 C 508.02 405.36 513.37 405.29 518.27 406.67 C 519.99 408.01 519.39 411.03 519.60 413.00 C 519.54 430.04 520.45 447.04 520.37 464.07 C 505.70 475.20 490.77 486.01 475.97 496.96 C 472.83 499.20 470.51 501.75 466.36 501.66 C 466.33 499.40 466.43 497.33 467.46 495.26 C 472.54 483.77 477.48 472.24 482.57 460.76 C 483.38 458.87 484.10 457.13 483.65 455.02 C 480.46 439.13 476.47 423.36 473.45 407.44 C 477.50 405.58 481.66 404.98 485.96 404.00 C 491.36 402.53 497.36 404.21 502.98 404.62 Z" fill="#ffffff" />
<path d="M 275.04 417.88 C 306.32 422.68 337.67 427.25 368.95 432.06 C 374.23 432.87 379.49 433.55 384.72 434.67 C 384.68 436.52 384.60 438.38 384.50 440.23 L 383.85 440.92 C 378.12 460.94 371.81 480.81 365.86 500.77 C 365.15 502.85 364.80 504.87 363.13 506.41 C 361.10 506.49 359.13 504.59 357.55 503.45 C 324.40 477.59 291.14 451.84 258.01 425.96 C 254.47 423.12 250.39 420.53 247.37 417.15 C 247.82 416.24 248.29 415.33 248.79 414.44 C 257.56 414.69 266.29 417.01 275.04 417.88 Z" fill="#ffffff" />
<path d="M 739.30 421.52 C 739.93 422.59 740.44 423.71 740.94 424.83 C 720.79 439.41 700.44 453.73 680.17 468.13 C 664.23 479.59 648.18 490.89 632.18 502.24 C 628.39 504.82 625.50 507.72 620.93 508.88 C 620.11 506.64 619.37 504.37 618.77 502.06 C 614.24 484.35 609.59 466.64 605.17 448.90 C 604.05 444.83 603.01 440.73 602.29 436.56 C 604.50 435.87 606.69 435.38 609.00 435.13 C 646.63 431.09 684.32 426.98 721.95 423.03 C 727.71 422.56 733.53 421.29 739.30 421.52 Z" fill="#ffffff" />
<path d="M 402.00 456.75 C 404.32 459.97 405.69 463.94 407.47 467.49 C 417.80 489.22 427.74 511.14 438.20 532.83 C 439.40 535.25 439.93 537.27 439.98 539.99 C 440.49 553.00 441.12 566.00 441.68 579.00 C 441.77 581.88 442.12 584.89 441.73 587.75 C 441.41 589.69 438.69 590.02 437.56 588.55 C 435.30 586.08 433.42 583.25 431.35 580.62 C 414.02 558.00 396.72 535.31 379.23 512.83 C 380.17 508.53 381.72 504.48 383.18 500.34 C 387.40 488.15 391.66 475.98 395.93 463.81 C 396.82 461.26 397.73 458.74 398.91 456.30 C 399.93 456.40 401.00 456.48 402.00 456.75 Z" fill="#ffffff" />
<path d="M 585.40 456.17 C 587.28 459.67 588.34 463.40 589.68 467.23 C 594.40 480.90 599.00 494.61 603.75 508.27 C 604.25 509.78 604.70 511.22 604.66 512.83 C 604.02 514.33 602.92 515.66 601.94 516.96 C 585.16 538.20 568.58 559.61 551.92 580.94 C 549.57 584.00 547.32 587.06 544.42 589.63 C 543.48 589.12 542.53 588.61 541.59 588.09 C 541.98 573.38 543.16 558.67 543.66 543.95 C 543.88 540.00 543.76 536.38 545.67 532.79 C 556.43 511.04 566.69 489.04 577.24 467.21 C 578.77 464.12 580.04 460.82 581.89 457.90 C 582.69 456.41 583.95 456.54 585.40 456.17 Z" fill="#ffffff" />
<path d="M 611.48 539.56 C 612.44 539.37 613.41 539.23 614.39 539.15 C 616.34 543.25 617.45 547.90 618.84 552.24 C 624.26 569.71 629.61 587.21 635.04 604.68 C 635.66 606.85 636.11 608.65 634.64 610.59 C 630.35 617.12 625.85 623.52 621.60 630.08 C 629.13 639.93 635.53 650.43 642.36 660.77 C 642.36 670.35 644.48 680.71 643.42 690.21 L 640.88 690.58 C 638.19 688.57 636.66 685.08 634.07 682.88 C 632.12 681.44 629.75 680.50 627.53 679.56 C 623.91 677.72 618.97 679.22 615.07 679.56 C 619.17 684.92 623.28 690.31 627.21 695.81 C 632.72 705.20 632.72 716.81 630.22 727.14 C 630.09 728.38 628.26 729.98 627.08 729.07 C 622.56 727.07 618.47 724.13 614.08 721.86 C 616.59 734.06 619.83 746.11 622.52 758.26 C 623.08 760.51 622.16 762.25 621.29 764.25 C 617.87 771.56 614.62 778.95 611.30 786.30 C 610.36 786.81 609.42 787.33 608.49 787.84 C 605.34 783.70 606.21 778.28 604.50 773.41 C 603.59 770.39 601.85 767.92 599.80 765.56 C 599.55 774.04 599.72 782.52 599.68 791.00 C 599.58 795.56 600.20 799.67 598.66 803.95 C 596.89 809.20 595.85 814.43 592.91 818.90 C 590.28 823.08 587.95 827.12 584.88 830.91 C 575.84 842.21 566.91 853.60 557.96 864.97 C 556.40 866.70 555.41 868.51 552.76 868.38 C 551.16 866.48 551.20 864.36 550.80 862.01 C 549.99 855.29 549.08 848.59 548.20 841.87 C 541.54 846.69 534.70 851.27 528.11 856.19 C 525.55 858.09 524.14 859.86 522.93 862.82 C 520.87 867.65 518.57 872.26 515.33 876.43 C 512.25 879.93 507.26 882.42 504.41 886.27 C 501.99 889.47 499.75 892.79 497.06 895.78 C 490.35 891.24 484.60 884.81 478.69 879.30 C 475.91 876.72 472.49 874.77 469.90 872.01 C 465.91 866.58 464.78 857.70 459.08 853.87 C 453.50 849.41 447.93 844.93 442.41 840.40 C 441.96 844.25 441.37 848.12 441.20 851.99 C 441.02 856.87 442.17 861.89 441.68 866.74 C 440.80 869.22 438.47 868.62 437.03 866.98 C 423.95 852.49 411.04 837.55 397.94 823.04 C 395.97 820.80 393.70 818.90 393.15 815.82 C 392.28 812.02 391.55 808.17 390.85 804.33 C 390.15 798.56 390.61 792.65 390.06 786.85 C 389.37 780.10 389.54 773.23 389.23 766.45 C 386.94 768.64 384.82 770.75 383.70 773.80 C 383.30 777.58 382.26 781.18 381.10 784.79 C 380.06 784.57 379.02 784.31 378.00 784.02 C 375.80 780.96 374.77 776.98 373.18 773.56 C 372.04 770.46 369.99 767.40 370.82 764.00 C 373.15 750.53 375.84 737.11 377.87 723.60 C 373.26 725.37 368.73 727.31 364.16 729.18 C 362.16 729.82 360.63 730.96 358.82 729.18 C 358.13 726.88 357.96 724.40 357.68 722.02 C 357.15 715.51 355.74 708.42 356.24 701.93 C 356.87 700.33 358.78 699.19 359.99 697.98 C 364.74 694.18 366.77 689.14 370.56 684.49 C 372.16 682.58 374.35 681.02 376.28 679.45 C 369.33 679.80 362.21 680.12 355.37 681.43 C 353.05 683.81 350.83 686.51 348.11 688.42 C 346.11 688.99 344.60 688.21 344.65 686.05 C 345.18 679.66 346.69 673.42 346.77 666.96 C 347.68 661.23 349.61 655.92 351.77 650.54 C 352.74 648.15 355.10 646.68 356.97 644.96 C 362.17 640.30 367.30 635.56 372.37 630.75 C 367.60 623.25 362.14 616.19 357.32 608.74 C 355.99 606.96 357.07 605.21 357.45 603.28 C 363.32 582.99 368.78 562.57 374.80 542.32 C 376.01 542.26 377.23 542.21 378.44 542.16 C 380.88 549.94 382.11 558.10 383.87 566.05 C 385.00 571.07 386.16 576.11 386.90 581.20 C 402.20 592.71 418.09 603.45 433.45 614.87 C 433.97 636.61 434.32 657.27 434.47 679.02 C 434.61 681.77 433.13 683.61 431.77 685.81 C 425.62 695.00 419.81 704.39 413.66 713.58 C 412.86 714.88 411.92 716.21 411.44 717.66 C 412.98 720.60 415.16 723.22 417.02 725.97 C 427.35 740.83 437.79 755.61 448.19 770.42 C 459.79 770.47 471.40 770.44 483.00 770.44 C 504.43 770.89 525.89 770.58 547.33 770.66 C 557.10 754.90 566.76 739.08 576.44 723.27 C 578.23 720.22 580.54 717.28 581.84 713.99 C 581.14 712.51 580.08 711.13 579.11 709.81 C 572.64 701.29 566.47 692.55 560.02 684.01 C 558.81 682.28 557.21 680.38 556.93 678.24 C 556.52 674.28 557.17 670.04 557.20 666.00 C 557.45 649.33 557.54 632.57 557.85 615.91 C 557.83 613.69 559.87 612.58 561.38 611.34 C 575.40 601.21 589.33 590.95 603.28 580.73 C 603.55 579.17 603.83 577.61 604.15 576.06 C 604.74 572.38 605.41 568.72 606.14 565.07 C 607.24 558.21 608.61 551.39 609.75 544.53 C 610.13 542.90 610.39 540.87 611.48 539.56 Z" fill="#ffffff" />
<path d="M 536.35 698.78 C 536.36 703.22 536.36 707.65 536.34 712.08 C 525.92 720.56 515.11 728.59 504.52 736.87 C 502.34 744.70 500.82 752.74 498.31 760.46 C 497.13 760.46 495.95 760.44 494.76 760.43 C 492.23 753.12 490.51 745.58 488.25 738.20 C 487.74 736.32 486.38 735.27 484.98 734.04 C 476.08 726.70 467.25 719.27 458.39 711.89 C 458.45 710.24 458.54 708.59 458.65 706.95 C 459.38 704.32 460.02 701.67 460.80 699.05 C 465.13 699.23 467.25 702.12 470.48 704.53 C 478.98 711.35 487.52 718.11 496.04 724.90 C 507.90 716.54 519.52 707.81 531.28 699.32 C 533.01 697.89 534.38 698.45 536.35 698.78 Z" fill="#ffffff" />
<path d="M 539.92 788.35 C 538.00 793.47 535.98 798.55 534.09 803.68 C 527.71 803.93 521.37 803.42 515.00 803.49 C 497.56 803.50 480.13 803.58 462.70 803.23 C 461.27 798.27 459.93 793.30 458.41 788.36 C 485.58 788.26 512.75 788.28 539.92 788.35 Z" fill="#002147" />
</svg>