<?xml version="1.0" encoding="UTF-8" standalone="no"?>
<!DOCTYPE svg PUBLIC "-//W3C//DTD SVG 1.1//EN" "http://www.w3.org/Graphics/SVG/1.1/DTD/svg11.dtd">
<svg xmlns="http://www.w3.org/2000/svg" version="1.1" viewBox="0 0 400 552" width="400.0pt" height="552.0pt">
<path d="M 0.00 0.00 L 400.00 0.00 L 400.00 552.00 L 0.00 552.00 L 0.00 0.00 Z" fill="#ffffff" />
<path d="M 347.69 0.64 C 349.19 4.60 350.21 8.62 351.29 12.70 C 355.98 30.62 360.94 48.55 365.68 66.43 C 367.31 71.15 363.47 74.49 361.17 78.15 C 333.79 117.13 306.64 156.30 279.33 195.34 C 275.34 200.98 271.84 206.75 267.16 211.89 C 260.58 207.23 254.50 201.91 248.15 196.84 C 242.64 192.30 237.00 188.34 232.04 183.17 C 235.70 178.48 239.75 174.15 243.76 169.76 C 272.51 137.84 301.28 105.94 330.03 74.02 C 332.84 70.85 335.97 67.89 338.54 64.52 C 340.58 61.94 340.56 58.91 340.86 55.78 C 341.80 39.49 343.05 23.23 344.03 6.94 C 344.64 4.09 343.69 0.60 347.69 0.64 Z" fill="#001b45" />
<path d="M 58.62 3.39 C 59.70 9.76 59.90 16.05 60.34 22.48 C 61.08 34.32 62.01 46.15 62.66 57.99 C 62.92 60.58 62.83 63.70 64.03 66.06 C 66.14 69.40 69.22 72.19 71.83 75.15 C 101.42 107.91 130.95 140.72 160.52 173.49 C 164.41 177.72 168.39 181.75 171.50 186.62 C 165.28 192.09 158.75 197.07 152.32 202.31 C 146.95 206.61 141.99 211.12 136.12 214.76 C 131.85 209.62 128.25 204.05 124.43 198.58 C 98.11 160.89 71.82 123.18 45.51 85.50 C 43.08 81.95 40.29 78.56 38.19 74.81 C 36.71 72.52 37.80 69.91 38.30 67.48 C 42.84 51.18 47.09 34.81 51.49 18.48 C 52.66 14.34 53.41 9.98 55.02 5.99 C 55.52 4.52 57.37 4.12 58.62 3.39 Z" fill="#001b45" />
<path d="M 202.00 182.17 C 207.77 182.28 213.61 183.61 219.24 184.79 C 219.94 195.49 219.67 206.26 220.06 216.99 C 220.09 220.47 220.46 224.23 219.67 227.64 C 218.46 229.61 216.26 231.07 214.45 232.46 C 207.47 237.45 200.60 242.59 193.70 247.70 C 188.85 251.21 185.15 255.12 179.05 256.42 C 181.57 245.16 188.20 234.94 191.86 224.03 C 192.40 222.17 192.10 220.41 191.78 218.54 C 189.48 207.38 186.52 196.30 184.80 185.03 C 190.40 183.68 196.23 182.28 202.00 182.17 Z" fill="#001b45" />
<path d="M 17.32 192.20 C 24.33 191.93 30.77 193.43 37.65 194.42 C 62.21 198.13 86.76 201.89 111.33 205.53 C 114.57 206.02 117.78 206.65 120.98 207.39 C 119.36 216.00 116.16 224.35 113.78 232.80 C 110.72 242.38 108.30 252.22 104.70 261.61 C 98.88 258.77 94.39 254.59 89.33 250.67 C 69.09 234.92 48.86 219.13 28.62 203.38 C 24.21 199.82 19.70 197.67 17.32 192.20 Z" fill="#001b45" />
<path d="M 383.69 196.30 C 380.98 201.54 376.40 203.53 371.87 206.88 C 351.61 221.26 331.39 235.72 311.12 250.12 C 305.36 254.19 299.83 258.45 293.77 262.09 C 290.44 254.30 289.01 245.53 286.71 237.33 C 284.28 227.18 281.12 217.16 279.30 206.88 C 286.59 205.57 293.90 205.04 301.26 204.24 C 325.39 201.62 349.54 199.09 373.67 196.43 C 377.00 196.07 380.34 196.10 383.69 196.30 Z" fill="#001b45" />
<path d="M 129.62 218.56 C 131.41 217.14 132.51 220.51 133.31 221.63 C 141.46 240.09 149.51 258.82 157.79 277.25 C 160.82 283.70 160.06 290.06 160.48 297.03 C 160.61 305.53 161.85 314.37 160.79 322.76 C 155.38 319.88 153.10 315.18 149.42 310.57 C 140.45 298.88 131.49 287.18 122.51 275.49 C 120.09 272.28 117.30 269.22 115.25 265.76 C 113.74 263.58 115.04 260.98 115.61 258.71 C 119.61 246.91 123.38 235.03 127.14 223.15 C 127.76 221.79 128.24 219.27 129.62 218.56 Z" fill="#001b45" />
<path d="M 269.08 219.68 C 269.90 219.89 270.72 220.11 271.53 220.35 C 274.04 227.50 275.60 234.99 277.69 242.27 C 279.32 248.95 281.66 255.51 282.92 262.25 C 283.52 265.02 281.63 267.05 280.17 269.16 C 269.38 282.73 258.82 296.48 248.14 310.14 C 244.32 314.84 241.92 319.65 236.41 322.65 C 235.50 314.54 236.49 307.02 236.79 298.89 C 237.08 293.98 237.05 289.03 237.61 284.15 C 238.08 280.04 240.52 276.04 242.34 272.36 C 248.54 260.18 254.58 247.93 260.71 235.72 C 263.44 230.37 265.87 224.75 269.08 219.68 Z" fill="#001b45" />
<path d="M 290.48 283.86 C 292.56 288.84 293.98 294.25 295.58 299.42 C 298.70 309.63 301.80 319.84 305.01 330.01 C 307.70 338.40 307.85 348.22 304.29 356.38 C 303.95 357.46 303.21 358.08 302.09 358.23 C 298.26 355.12 295.49 350.63 292.18 346.97 C 293.27 352.55 294.82 357.64 297.07 362.86 C 299.96 369.52 301.67 376.53 302.92 383.66 C 300.26 384.32 297.59 384.96 294.91 385.55 C 298.03 393.46 301.01 401.59 303.04 409.85 C 304.48 415.90 303.31 421.58 301.74 427.46 C 297.92 425.93 294.30 424.03 290.66 422.13 C 292.18 430.43 294.52 438.53 296.26 446.78 C 297.24 450.94 295.29 454.02 293.77 457.73 C 291.72 462.02 290.11 467.12 287.03 470.77 L 285.38 470.11 C 283.44 465.06 283.36 459.84 280.16 455.21 C 279.04 463.13 280.05 470.95 279.48 478.84 C 278.46 487.09 274.95 494.43 270.07 501.08 C 264.98 507.94 259.44 514.46 254.25 521.24 C 251.28 525.13 248.29 528.96 244.69 532.29 C 241.64 526.13 241.91 518.89 240.73 511.92 C 236.94 514.37 233.20 516.90 229.53 519.51 C 227.07 521.32 224.50 523.17 222.92 525.84 C 221.00 529.06 219.78 532.47 217.54 535.57 C 215.15 538.90 211.88 541.00 209.06 544.03 C 206.80 546.50 204.83 549.25 202.72 551.84 C 196.43 547.93 191.97 542.34 186.28 537.73 C 184.48 536.19 182.68 534.71 181.42 532.67 C 178.88 528.59 177.89 524.09 174.25 520.78 C 170.29 517.16 165.88 513.99 161.55 510.83 C 160.58 518.09 161.82 525.25 160.32 532.41 C 154.58 527.99 150.61 522.54 145.77 517.23 C 139.84 510.48 133.81 503.83 127.85 497.12 C 124.17 493.07 123.71 488.11 122.96 482.92 C 122.02 473.55 122.37 464.09 121.33 454.71 C 118.14 459.30 117.07 464.49 114.92 469.54 C 111.75 465.81 109.49 461.40 108.31 456.65 C 107.48 453.26 108.42 449.28 109.00 445.88 C 110.69 437.21 112.08 428.49 113.66 419.80 C 114.62 414.42 116.40 409.47 117.03 404.07 C 117.62 399.06 117.83 393.99 118.02 388.95 C 113.77 393.36 110.06 397.97 105.03 401.56 C 102.28 393.03 100.79 383.37 102.41 374.48 C 103.75 367.05 107.40 360.89 109.26 353.59 C 105.60 355.99 102.15 358.60 98.22 360.56 C 97.15 353.85 97.34 346.76 97.23 339.95 C 97.15 335.86 97.84 331.95 99.02 328.05 C 102.67 315.57 106.04 303.02 109.52 290.50 C 110.29 288.73 110.35 286.17 112.83 286.20 C 114.20 286.84 114.51 288.77 114.94 290.07 C 116.94 297.93 117.92 306.08 120.12 313.88 C 120.83 316.57 123.29 318.05 125.36 319.64 C 133.80 325.50 142.05 331.63 150.48 337.52 C 152.20 338.94 154.98 340.56 155.06 343.03 C 155.64 347.63 155.35 352.37 155.46 357.00 C 155.49 367.03 155.86 377.06 155.91 387.08 C 155.98 390.24 155.04 392.70 153.33 395.29 C 148.38 402.86 143.24 410.29 138.55 418.03 C 145.85 429.12 153.80 439.77 161.19 450.79 C 162.70 452.93 164.20 455.41 166.25 457.06 C 172.01 458.10 178.19 457.28 184.05 457.51 C 200.04 457.99 216.03 457.61 232.02 457.84 C 234.49 457.82 237.10 457.93 239.53 457.43 C 241.71 455.72 243.12 452.88 244.59 450.56 C 251.54 438.71 259.16 427.23 265.98 415.31 C 261.15 408.71 256.32 402.12 251.36 395.61 C 249.77 393.38 247.57 390.73 247.37 387.91 C 246.98 383.64 247.34 379.28 247.38 374.99 C 247.73 364.33 247.42 353.62 247.97 342.98 C 248.01 339.72 250.47 338.53 252.69 336.69 C 260.86 330.89 268.84 324.83 277.01 319.02 C 279.00 317.46 281.52 315.90 282.16 313.29 C 284.46 304.45 284.99 295.11 287.42 286.30 C 287.91 284.50 288.87 284.34 290.48 283.86 Z" fill="#001b45" />
<path d="M 231.22 402.60 C 231.81 406.51 233.79 413.18 229.91 415.91 C 223.92 420.97 217.35 425.35 211.29 430.32 C 209.58 431.73 208.22 433.29 207.65 435.49 C 206.04 440.97 205.28 446.51 202.65 451.69 C 196.20 444.66 199.20 434.91 191.80 429.22 C 186.77 424.91 181.47 420.91 176.47 416.57 C 175.43 415.53 173.89 414.36 173.55 412.89 C 173.55 409.77 174.64 406.53 175.46 403.55 C 178.53 405.08 181.30 406.85 183.95 409.03 C 189.88 413.86 195.74 418.76 201.91 423.28 C 211.84 416.66 220.90 408.58 231.22 402.60 Z" fill="#001b45" />
<path d="M 174.08 468.31 C 183.06 468.20 192.04 468.64 201.03 468.52 C 211.50 468.96 221.98 468.42 232.44 469.09 C 230.71 472.01 229.04 475.39 226.55 477.73 C 224.22 478.53 221.45 478.29 219.02 478.32 C 207.33 477.95 195.65 477.69 183.96 477.57 C 182.21 477.44 179.92 477.58 178.40 476.62 C 176.36 474.30 175.07 471.21 174.08 468.31 Z" fill="#ffffff" />
</svg>