<?xml version="1.0" encoding="UTF-8" standalone="no"?>
<!DOCTYPE svg PUBLIC "-//W3C//DTD SVG 1.1//EN" "http://www.w3.org/Graphics/SVG/1.1/DTD/svg11.dtd">
<svg xmlns="http://www.w3.org/2000/svg" version="1.1" viewBox="0 0 400 552" width="400.0pt" height="552.0pt">
<path d="M 0.00 0.00 L 400.00 0.00 L 400.00 552.00 L 0.00 552.00 L 0.00 499.95 L 0.74 506.55 C 4.23 509.97 7.83 513.35 11.46 516.61 C 13.07 518.26 14.88 517.93 16.99 518.03 C 31.33 517.98 45.66 518.00 60.00 518.01 C 62.96 517.98 66.00 518.19 68.94 517.81 C 70.98 516.78 72.67 514.88 74.37 513.36 C 76.54 511.21 79.07 509.29 80.95 506.89 C 81.86 502.79 81.20 498.21 81.38 494.00 C 81.19 485.08 81.74 476.00 81.13 467.12 C 79.05 464.24 76.03 461.98 73.53 459.45 C 71.16 457.43 69.53 454.79 66.06 455.00 C 58.05 454.94 50.02 455.06 42.00 454.97 C 39.84 455.00 37.48 454.86 35.40 455.45 C 34.25 456.81 34.45 458.29 34.35 459.96 C 34.34 464.31 34.39 468.66 34.34 473.01 C 34.40 475.07 34.24 476.97 35.11 478.89 C 41.18 479.70 47.50 479.06 53.63 479.25 C 53.62 484.25 53.62 489.25 53.62 494.25 C 44.96 494.25 36.29 494.25 27.62 494.25 C 27.62 471.58 27.62 448.92 27.62 426.25 C 36.42 426.25 45.21 426.25 54.00 426.25 C 54.12 429.87 53.51 433.95 54.62 437.42 C 58.99 438.11 63.58 437.63 68.00 437.75 C 72.17 437.66 76.44 438.04 80.57 437.49 C 81.52 435.98 81.36 433.73 81.41 432.00 C 81.34 426.65 81.44 421.30 81.38 415.95 C 81.87 412.30 77.52 410.06 75.34 407.67 C 72.99 405.84 70.30 401.88 67.06 402.25 C 49.37 402.24 31.63 402.25 13.94 402.25 C 11.02 402.04 9.69 403.98 7.66 405.67 C 3.67 409.72 -0.62 411.29 0.00 418.22 L 0.00 0.00 Z" fill="#ffffff" />
<path d="M 347.76 1.10 C 349.00 3.43 349.50 6.21 350.22 8.74 C 355.66 29.20 361.19 49.63 366.65 70.08 C 335.88 114.45 304.86 158.68 274.02 203.01 C 271.85 206.13 269.85 209.27 267.12 211.95 C 258.73 205.71 250.78 198.87 242.60 192.36 C 238.93 189.36 235.23 186.70 232.00 183.22 C 235.02 179.16 238.49 175.63 241.85 171.86 C 274.67 135.43 307.51 99.02 340.33 62.59 C 341.63 43.06 342.94 23.45 344.30 3.93 C 344.40 1.66 345.19 -0.05 347.76 1.10 Z" fill="#002147" />
<path d="M 55.51 4.48 C 57.22 2.65 59.03 4.06 59.17 6.15 C 60.66 25.90 61.87 45.84 63.26 65.61 C 96.62 102.63 130.00 139.62 163.36 176.63 C 166.29 179.94 169.35 182.74 171.53 186.65 C 161.99 194.75 152.06 202.40 142.41 210.37 C 140.38 212.01 138.64 213.68 136.11 214.53 C 134.94 213.48 133.96 212.26 133.04 210.98 C 101.05 165.02 68.92 119.12 36.91 73.16 C 42.29 52.58 47.92 32.06 53.34 11.49 C 53.98 9.16 54.47 6.67 55.51 4.48 Z" fill="#002147" />
<path d="M 198.20 182.40 C 203.07 181.46 207.22 182.73 212.03 183.34 C 214.34 183.73 216.91 183.95 219.04 184.94 C 219.65 187.19 219.55 189.68 219.63 191.99 C 219.71 204.02 220.13 216.04 220.11 228.07 C 208.52 236.87 196.71 245.38 185.09 254.13 C 183.20 255.17 181.42 257.58 179.39 255.49 C 179.00 252.95 180.88 250.11 181.75 247.78 C 185.25 239.46 189.20 231.24 192.38 222.80 C 192.23 219.58 191.18 216.36 190.57 213.20 C 188.82 204.96 186.92 196.72 185.25 188.47 C 185.25 187.48 184.47 185.21 185.73 184.81 C 189.73 183.50 194.07 183.19 198.20 182.40 Z" fill="#002147" />
<path d="M 21.97 192.04 C 53.59 196.83 85.36 201.66 116.98 206.39 C 118.17 206.65 119.45 206.87 120.53 207.44 C 120.99 209.10 120.51 210.56 120.07 212.16 C 115.60 226.67 111.22 241.22 106.86 255.77 C 106.23 257.91 105.35 259.88 104.24 261.81 C 100.28 259.49 96.87 256.54 93.24 253.75 C 68.90 234.77 44.53 215.75 20.16 196.81 C 18.80 195.70 17.70 194.85 17.55 192.95 C 19.02 191.59 20.12 191.82 21.97 192.04 Z" fill="#002147" />
<path d="M 379.04 195.88 C 381.40 195.78 382.57 195.37 383.41 198.02 C 382.44 199.20 381.28 200.17 380.06 201.07 C 352.78 220.42 325.54 239.90 298.28 259.27 C 296.81 260.27 295.28 261.16 293.75 262.05 C 291.71 258.17 291.06 254.19 289.94 250.00 C 286.39 235.76 282.49 221.59 279.14 207.30 C 282.97 205.84 286.92 205.79 291.01 205.31 C 320.34 202.19 349.71 199.02 379.04 195.88 Z" fill="#002147" />
<path d="M 131.92 219.04 C 133.63 221.77 134.70 224.94 136.04 227.87 C 142.86 243.40 149.66 258.95 156.51 274.48 C 157.99 278.03 159.92 281.04 159.99 284.96 C 160.44 295.64 160.84 306.32 161.34 317.01 C 161.29 319.12 161.78 320.91 160.00 322.47 C 158.30 322.08 157.39 320.92 156.35 319.64 C 142.94 302.09 129.46 284.54 116.00 267.02 C 115.30 266.09 114.70 265.10 114.20 264.08 C 114.81 260.73 116.13 257.48 117.14 254.23 C 120.48 243.90 123.88 233.58 127.15 223.23 C 127.65 221.76 128.11 220.19 128.92 218.87 C 129.84 217.87 131.15 217.98 131.92 219.04 Z" fill="#002147" />
<path d="M 271.51 220.37 C 272.99 223.74 273.63 227.52 274.67 231.06 C 277.33 240.87 279.95 250.69 282.66 260.49 C 282.98 262.23 283.86 263.91 282.75 265.51 C 281.08 268.17 278.95 270.54 277.05 273.03 C 265.09 288.40 253.09 303.74 241.17 319.14 C 239.90 320.57 239.16 322.11 237.01 322.15 C 235.38 320.68 235.91 318.96 235.86 317.00 C 236.45 306.32 236.95 295.64 237.47 284.96 C 237.53 280.90 239.64 278.00 241.33 274.44 C 250.01 257.14 258.69 239.76 267.33 222.44 C 268.33 220.74 269.34 218.36 271.51 220.37 Z" fill="#002147" />
<path d="M 17.94 264.00 C 32.62 263.96 47.33 264.05 62.01 263.97 C 63.63 264.08 65.80 263.72 67.10 264.86 C 69.18 266.42 71.02 268.32 72.96 270.06 C 74.81 271.82 76.96 273.47 78.49 275.52 C 78.98 276.90 78.85 278.54 78.91 279.99 C 78.84 305.99 78.89 332.00 78.88 358.00 C 78.84 361.26 79.10 364.61 78.68 367.85 C 77.85 369.67 75.87 371.05 74.48 372.47 C 71.85 374.76 69.48 377.65 66.50 379.48 C 64.08 379.96 61.47 379.73 59.00 379.77 C 45.33 379.74 31.66 379.73 17.99 379.78 C 15.95 379.65 14.11 380.10 12.51 378.58 C 9.66 376.11 6.78 373.47 4.15 370.77 C 2.71 369.44 2.98 367.81 2.86 366.03 C 2.88 337.35 2.90 308.66 2.85 279.99 C 2.98 278.34 2.66 276.25 3.96 275.03 C 6.38 272.43 9.12 270.14 11.63 267.64 C 13.61 265.95 15.06 263.78 17.94 264.00 Z" fill="#002147" />
<path d="M 331.00 263.99 C 350.67 263.99 370.33 264.03 390.00 263.98 C 392.79 264.02 395.82 263.77 398.54 264.45 C 399.14 266.18 399.13 268.19 399.16 270.00 C 399.11 278.33 399.11 286.67 399.16 295.00 C 399.13 296.81 399.14 298.82 398.54 300.54 C 395.17 301.34 391.45 300.93 388.00 301.01 C 384.21 300.90 380.16 301.37 376.45 300.54 C 375.38 296.40 376.01 291.75 375.89 287.50 C 374.76 287.50 373.63 287.50 372.50 287.51 C 372.49 310.23 372.52 332.95 372.49 355.67 C 374.98 355.85 378.19 355.33 380.42 356.60 C 381.04 359.98 380.68 363.57 380.76 367.00 C 380.66 370.81 381.05 374.76 380.46 378.53 C 378.59 380.04 375.26 379.38 373.00 379.53 C 361.11 379.26 349.13 379.95 337.27 379.15 C 336.85 371.61 336.81 363.76 337.30 356.23 C 339.78 355.88 342.27 355.73 344.77 355.62 C 344.72 332.91 344.77 310.20 344.75 287.50 C 343.62 287.50 342.49 287.50 341.36 287.50 C 341.13 291.71 342.09 296.64 340.67 300.62 C 333.41 301.35 325.70 301.13 318.42 300.64 C 317.85 293.80 318.23 286.87 318.13 280.00 C 318.21 274.84 317.83 269.55 318.47 264.43 C 322.51 263.75 326.89 264.04 331.00 263.99 Z" fill="#002147" />
<path d="M 290.59 284.36 C 292.07 287.07 292.75 290.29 293.69 293.23 C 297.52 305.75 301.33 318.28 305.23 330.79 C 307.08 336.13 307.20 342.15 306.74 347.73 C 305.79 351.44 305.27 356.29 302.29 358.92 C 298.57 355.12 295.60 350.79 292.16 346.75 C 292.59 348.76 293.01 350.77 293.50 352.76 C 295.05 359.39 298.59 365.20 300.31 371.92 C 301.24 375.65 302.35 379.42 302.81 383.24 C 300.90 385.07 297.05 384.85 294.53 385.36 C 296.43 389.59 298.39 393.74 299.62 398.23 C 301.41 404.86 304.16 410.27 303.69 417.39 C 303.29 420.54 302.95 423.91 301.76 426.87 C 297.90 427.25 293.85 423.24 290.41 421.66 C 292.33 429.95 294.25 438.23 296.23 446.50 C 296.54 448.24 297.10 449.73 296.39 451.45 C 294.45 456.36 292.08 461.09 290.07 465.97 C 288.91 468.13 288.71 470.47 285.87 470.90 C 283.96 468.73 284.01 464.90 283.34 462.17 C 282.84 459.23 281.31 456.88 279.74 454.41 C 279.49 461.94 279.69 469.49 279.64 477.03 C 279.70 481.59 277.69 486.24 276.31 490.54 C 273.69 496.38 269.75 501.76 265.73 506.72 C 260.41 513.41 255.10 520.12 249.82 526.84 C 248.31 528.80 246.62 530.60 244.84 532.32 C 243.86 530.80 242.97 529.36 242.77 527.53 C 242.01 522.26 241.44 516.96 240.69 511.70 C 236.44 514.78 232.10 517.76 227.83 520.82 C 226.04 522.20 223.82 523.66 222.80 525.73 C 221.01 529.32 219.62 532.97 217.21 536.24 C 214.66 539.82 210.71 541.42 208.05 545.01 C 206.27 547.43 204.55 549.84 202.39 551.96 C 197.68 548.55 193.67 544.49 189.54 540.44 C 187.19 538.12 184.26 536.40 182.03 533.98 C 179.54 530.39 178.57 525.66 175.87 522.22 C 171.40 518.10 166.35 514.56 161.71 510.61 C 161.14 515.09 160.57 519.48 161.12 524.00 C 161.12 526.87 162.29 529.60 159.97 531.84 C 157.08 530.64 155.33 527.97 153.27 525.73 C 144.68 515.98 136.06 506.26 127.38 496.58 C 126.31 495.31 125.26 494.21 124.82 492.55 C 121.48 480.64 122.60 467.47 121.50 454.89 C 120.32 456.43 118.58 458.09 118.15 460.01 C 117.23 462.80 117.18 466.54 115.17 468.74 L 113.24 468.15 C 111.12 464.62 109.75 460.59 108.22 456.78 C 107.39 454.90 107.81 453.14 108.10 451.20 C 110.11 440.13 112.05 429.06 113.96 417.97 C 114.82 413.15 116.71 408.92 117.06 403.99 C 117.48 398.86 117.81 393.73 118.23 388.60 C 114.50 392.41 111.14 396.69 107.14 400.21 C 105.99 401.52 104.43 400.68 104.06 399.21 C 102.04 389.72 100.44 380.81 103.14 371.23 C 104.60 364.79 108.30 359.39 109.36 352.92 C 106.36 355.06 103.71 357.72 100.61 359.69 C 99.22 360.62 97.47 359.49 97.62 357.84 C 97.33 351.24 97.39 344.61 97.22 338.00 C 97.10 333.65 98.56 330.03 99.67 325.92 C 102.84 314.63 105.99 303.34 109.13 292.05 C 109.74 289.86 110.47 287.72 111.29 285.61 C 112.46 286.39 114.19 286.56 114.44 288.15 C 116.65 297.02 118.12 306.08 120.32 314.96 C 120.57 316.23 122.14 317.11 123.08 317.90 C 132.62 324.68 142.05 331.61 151.59 338.38 C 152.74 339.23 153.97 340.12 154.92 341.18 C 155.27 342.73 155.29 344.41 155.34 346.00 C 155.46 360.00 155.73 374.02 155.91 388.02 C 155.95 390.19 155.72 391.65 154.47 393.44 C 149.10 401.64 143.76 409.84 138.40 418.05 C 147.58 431.20 156.79 444.33 165.95 457.50 C 175.31 457.54 184.65 457.35 194.00 457.74 C 209.35 457.77 224.70 457.74 240.06 457.75 C 248.76 443.67 257.38 429.54 266.09 415.46 C 260.34 407.66 254.60 399.88 248.84 392.09 C 247.54 390.36 247.18 389.24 247.23 387.04 C 247.36 373.70 247.65 360.34 247.76 346.99 C 247.83 344.82 247.74 342.48 248.28 340.36 C 250.08 338.48 252.40 337.02 254.48 335.46 C 263.12 329.14 271.82 322.72 280.45 316.37 C 282.03 315.38 282.07 313.89 282.48 312.23 C 284.13 303.54 285.51 294.78 287.32 286.12 C 287.58 284.30 288.94 283.74 290.59 284.36 Z" fill="#002147" />
<path d="M 30.37 288.37 C 37.35 288.05 44.38 288.36 51.38 288.25 C 51.38 310.92 51.38 333.58 51.38 356.25 C 44.33 356.25 37.29 356.25 30.25 356.25 C 30.34 333.67 30.08 310.92 30.37 288.37 Z" fill="#ffffff" />
<path d="M 13.94 402.25 C 31.63 402.25 49.37 402.24 67.06 402.25 C 70.30 401.88 72.99 405.84 75.34 407.67 C 77.52 410.06 81.87 412.30 81.38 415.95 C 81.44 421.30 81.34 426.65 81.41 432.00 C 81.36 433.73 81.52 435.98 80.57 437.49 C 76.44 438.04 72.17 437.66 68.00 437.75 C 63.58 437.63 58.99 438.11 54.62 437.42 C 53.51 433.95 54.12 429.87 54.00 426.25 C 45.21 426.25 36.42 426.25 27.62 426.25 C 27.62 448.92 27.62 471.58 27.62 494.25 C 36.29 494.25 44.96 494.25 53.62 494.25 C 53.62 489.25 53.62 484.25 53.63 479.25 C 47.50 479.06 41.18 479.70 35.11 478.89 C 34.24 476.97 34.40 475.07 34.34 473.01 C 34.39 468.66 34.34 464.31 34.35 459.96 C 34.45 458.29 34.25 456.81 35.40 455.45 C 37.48 454.86 39.84 455.00 42.00 454.97 C 50.02 455.06 58.05 454.94 66.06 455.00 C 69.53 454.79 71.16 457.43 73.53 459.45 C 76.03 461.98 79.05 464.24 81.13 467.12 C 81.74 476.00 81.19 485.08 81.38 494.00 C 81.20 498.21 81.86 502.79 80.95 506.89 C 79.07 509.29 76.54 511.21 74.37 513.36 C 72.67 514.88 70.98 516.78 68.94 517.81 C 66.00 518.19 62.96 517.98 60.00 518.01 C 45.66 518.00 31.33 517.98 16.99 518.03 C 14.88 517.93 13.07 518.26 11.46 516.61 C 7.83 513.35 4.23 509.97 0.74 506.55 L 0.00 499.95 L 0.00 418.22 C -0.62 411.29 3.67 409.72 7.66 405.67 C 9.69 403.98 11.02 402.04 13.94 402.25 Z" fill="#002147" />
<path d="M 333.95 401.99 C 349.99 401.99 365.99 402.02 382.03 401.98 C 383.53 402.09 384.86 401.83 386.10 402.86 C 388.90 405.02 391.37 407.63 394.02 409.98 C 395.50 411.54 397.31 412.51 397.20 414.92 C 397.16 422.21 397.64 429.69 396.90 436.93 C 393.73 438.42 389.44 437.55 386.00 437.76 C 380.99 437.52 375.61 438.32 370.71 437.25 C 369.39 433.97 370.17 429.75 370.00 426.25 C 362.38 426.25 354.75 426.25 347.13 426.25 C 347.13 448.92 347.13 471.58 347.13 494.25 C 354.67 494.25 362.21 494.25 369.75 494.25 C 370.04 488.02 369.09 481.38 370.30 475.27 C 372.15 474.38 373.97 474.51 375.98 474.46 C 380.65 474.50 385.33 474.52 390.00 474.47 C 392.37 474.50 394.60 474.33 396.82 475.23 C 397.36 477.38 397.27 479.79 397.28 482.00 C 397.22 489.01 397.27 496.01 397.28 503.01 C 397.14 504.84 397.49 506.56 395.99 507.91 C 392.98 510.89 389.78 513.90 386.61 516.70 C 384.96 518.32 383.13 517.92 381.01 518.03 C 365.66 517.95 350.28 518.03 334.94 518.00 C 332.07 518.22 330.60 516.06 328.61 514.38 C 326.10 511.89 323.30 509.64 320.94 507.00 C 319.85 505.84 320.11 504.52 319.99 503.04 C 320.02 473.68 319.99 444.31 320.00 414.95 C 319.53 411.28 323.10 409.59 325.27 407.26 C 327.95 405.17 330.16 401.52 333.95 401.99 Z" fill="#002147" />
<path d="M 229.46 403.52 C 230.66 402.81 231.95 403.74 231.98 405.03 C 232.29 408.04 232.11 411.13 232.12 414.16 C 224.27 420.40 216.30 426.49 208.36 432.62 C 206.51 438.52 205.98 445.27 203.13 450.74 L 200.92 450.38 C 198.11 444.71 197.70 437.67 194.87 432.08 C 188.64 426.35 181.82 421.17 175.41 415.63 C 174.38 414.56 173.00 413.81 173.44 412.09 C 173.81 409.07 174.68 406.18 175.83 403.38 C 179.64 405.43 182.75 408.19 186.12 410.85 C 191.37 415.04 196.60 419.25 201.86 423.43 C 209.85 417.55 217.88 411.73 225.84 405.80 C 226.98 404.98 228.17 404.10 229.46 403.52 Z" fill="#002147" />
<path d="M 173.71 468.22 C 183.50 468.47 193.26 468.53 203.05 468.53 C 212.94 469.05 222.82 468.40 232.69 469.04 C 230.63 472.18 228.55 475.31 226.48 478.45 C 210.44 477.97 194.38 477.78 178.34 477.30 C 176.83 474.25 175.30 471.22 173.71 468.22 Z" fill="#ffffff" />
</svg>