<?xml version="1.0" encoding="UTF-8" standalone="no"?>
<!DOCTYPE svg PUBLIC "-//W3C//DTD SVG 1.1//EN" "http://www.w3.org/Graphics/SVG/1.1/DTD/svg11.dtd">
<svg xmlns="http://www.w3.org/2000/svg" version="1.1" viewBox="0 0 1448 724" width="1448.0pt" height="724.0pt">
<path d="M 0.00 0.00 L 1448.00 0.00 L 1448.00 724.00 L 0.00 724.00 L 0.00 0.00 Z" fill="#ffffff" />
<path d="M 1163.98 145.53 C 1235.66 145.55 1307.34 145.54 1379.02 145.53 C 1381.29 145.35 1382.59 146.30 1384.24 147.67 C 1396.30 157.98 1408.45 168.18 1420.55 178.45 C 1422.84 180.45 1425.48 182.25 1427.45 184.57 C 1427.89 185.96 1427.79 187.55 1427.84 189.00 C 1427.78 212.66 1427.81 236.33 1427.82 260.00 C 1427.77 263.16 1428.06 266.46 1427.51 269.57 C 1426.19 270.69 1424.66 270.46 1423.04 270.57 C 1394.36 270.53 1365.68 270.54 1337.00 270.56 C 1333.34 270.47 1329.79 271.10 1326.49 269.29 C 1326.56 255.15 1326.53 241.00 1326.51 226.86 C 1290.84 226.89 1255.17 226.81 1219.51 226.90 C 1219.48 316.70 1219.45 406.51 1219.52 496.30 C 1254.94 496.28 1290.35 496.30 1325.77 496.29 C 1325.85 472.89 1325.76 449.36 1325.81 425.97 C 1325.97 424.46 1325.88 422.21 1327.71 421.73 C 1330.72 421.17 1333.94 421.49 1337.00 421.43 C 1365.67 421.45 1394.37 421.45 1423.04 421.42 C 1424.66 421.49 1426.16 421.44 1427.50 422.53 C 1427.82 423.96 1427.81 425.53 1427.84 426.99 C 1427.75 462.58 1427.89 498.48 1427.77 534.04 C 1427.93 536.28 1426.03 537.24 1424.65 538.68 C 1412.61 548.95 1400.57 559.25 1388.57 569.56 C 1386.23 571.51 1383.91 574.07 1381.13 575.32 C 1377.78 575.64 1374.36 575.42 1371.00 575.46 C 1302.92 575.45 1234.85 575.46 1166.77 575.45 C 1152.48 563.34 1138.37 551.01 1124.06 538.92 C 1122.21 537.31 1120.42 535.64 1118.61 533.98 C 1118.47 417.35 1118.59 300.62 1118.55 183.98 C 1118.42 181.39 1119.14 180.59 1120.98 179.00 C 1133.58 168.58 1146.12 158.16 1158.65 147.65 C 1160.35 146.20 1161.63 145.39 1163.98 145.53 Z" fill="#002147" />
<path d="M 67.99 146.79 C 131.29 146.80 194.71 146.83 258.00 146.78 C 261.98 146.92 265.82 146.05 268.99 149.01 C 282.99 161.00 296.94 173.09 311.00 185.02 C 312.95 186.77 314.56 188.07 314.27 190.98 C 314.26 302.98 314.25 415.00 314.27 527.00 C 314.16 529.86 314.65 533.18 313.85 535.92 C 311.87 538.78 308.75 540.96 306.18 543.29 C 294.51 553.58 282.80 563.85 271.18 574.19 C 269.57 575.48 268.35 576.89 266.16 577.08 C 262.79 577.35 259.38 577.16 256.00 577.19 C 190.66 577.18 125.32 577.18 59.98 577.19 C 57.76 577.18 56.33 576.82 54.67 575.33 C 42.73 564.97 30.81 554.56 18.86 544.19 C 17.34 542.65 15.45 541.51 15.63 539.08 C 15.57 423.17 15.63 305.76 15.60 189.68 C 30.22 176.28 45.41 163.49 60.14 150.22 C 62.51 148.03 64.59 146.60 67.99 146.79 Z" fill="#002147" />
<path d="M 413.86 146.96 C 417.54 146.59 421.30 146.85 425.00 146.80 C 496.00 146.79 567.00 146.84 638.00 146.78 C 640.87 146.88 644.62 146.36 647.20 147.78 C 650.13 149.79 652.72 152.31 655.46 154.57 C 666.83 164.19 678.20 173.81 689.61 183.38 C 690.63 184.31 691.77 185.27 692.54 186.43 C 693.05 189.21 692.78 192.18 692.83 195.00 C 692.80 218.33 692.81 241.67 692.82 265.00 C 692.82 267.20 692.71 269.40 692.54 271.59 C 687.00 272.36 681.56 272.11 676.00 272.13 C 651.33 272.14 626.67 272.10 602.00 272.14 C 598.88 272.10 595.39 272.43 592.38 271.52 C 591.22 270.09 591.52 267.76 591.42 266.01 C 591.49 253.50 591.43 240.98 591.46 228.47 C 551.07 228.43 510.68 228.46 470.29 228.45 C 470.32 318.16 470.26 407.88 470.31 497.59 C 510.31 497.55 550.30 497.61 590.29 497.57 C 590.28 474.95 590.30 452.34 590.28 429.73 C 566.86 429.74 543.43 429.71 520.00 429.75 C 517.23 429.71 514.35 429.92 511.61 429.46 C 510.44 428.12 510.66 426.66 510.56 425.01 C 510.60 401.01 510.59 376.99 510.57 353.00 C 510.71 351.24 510.31 349.84 511.94 348.68 C 515.25 348.28 518.66 348.51 522.00 348.48 C 560.00 348.48 598.00 348.50 636.00 348.47 C 638.88 348.56 642.04 348.16 644.84 348.82 C 647.51 350.43 649.81 352.81 652.19 354.83 C 664.33 365.35 676.39 375.94 688.55 386.43 C 689.91 387.68 691.48 388.90 692.52 390.43 C 693.07 393.20 692.77 396.18 692.83 399.00 C 692.77 444.22 692.86 489.86 692.78 535.04 C 692.96 537.76 691.15 538.77 689.39 540.40 C 675.68 552.01 662.11 563.80 648.42 575.44 C 646.85 576.88 645.10 577.19 643.01 577.19 C 569.00 577.18 494.99 577.18 420.98 577.19 C 418.78 577.19 417.31 576.84 415.66 575.36 C 402.55 564.13 389.53 552.77 376.34 541.64 C 374.15 539.73 371.55 537.93 369.83 535.58 C 369.13 532.90 369.53 529.78 369.44 527.00 C 369.50 412.20 369.40 297.39 369.49 182.59 C 382.30 171.69 395.37 161.07 408.23 150.22 C 409.98 148.87 411.58 147.26 413.86 146.96 Z" fill="#002147" />
<path d="M 754.00 147.62 C 853.33 147.70 952.67 147.63 1052.00 147.66 C 1057.37 147.74 1062.22 147.20 1067.42 148.41 C 1067.58 153.59 1067.50 158.80 1067.51 164.00 C 1067.44 201.53 1067.67 239.09 1067.40 276.61 C 1064.95 277.07 1062.50 277.35 1060.00 277.32 C 1034.81 277.23 1009.62 277.38 984.43 277.24 C 983.90 274.84 983.57 272.47 983.61 270.00 C 983.68 255.43 983.61 240.86 983.66 226.29 C 975.16 226.29 966.65 226.29 958.15 226.29 C 958.17 316.29 958.14 406.29 958.17 496.29 C 969.28 496.44 980.44 495.99 991.53 496.54 C 992.09 504.33 991.69 512.19 991.81 520.00 C 991.67 538.37 992.09 556.78 991.59 575.13 C 986.37 575.64 981.23 575.43 976.00 575.45 C 927.00 575.47 877.99 575.42 829.00 575.48 C 827.36 575.39 825.88 575.60 824.48 574.58 C 824.00 571.44 824.24 568.17 824.20 565.00 C 824.22 544.33 824.21 523.67 824.21 503.00 C 824.21 500.84 824.31 498.69 824.47 496.54 C 834.91 496.00 845.41 496.42 855.87 496.30 C 855.86 406.29 855.83 316.28 855.88 226.27 C 847.40 226.31 838.92 226.28 830.44 226.29 C 830.49 241.53 830.42 256.76 830.48 272.00 C 830.20 274.01 831.11 276.11 828.81 277.04 C 827.25 277.38 825.59 277.29 824.00 277.33 C 798.65 277.22 773.30 277.37 747.96 277.25 C 747.50 276.56 747.04 275.87 746.58 275.18 C 746.55 233.27 746.57 191.36 746.57 149.46 C 748.52 146.82 751.13 147.87 754.00 147.62 Z" fill="#002147" />
<path d="M 116.02 228.59 C 118.66 228.35 121.35 228.44 124.00 228.44 C 154.10 228.50 184.20 228.38 214.29 228.49 C 214.29 315.99 214.25 403.50 214.31 491.00 C 214.14 493.22 214.79 496.37 213.53 498.27 C 181.16 498.49 148.55 498.26 116.15 498.38 C 115.68 493.63 115.81 488.77 115.82 484.00 C 115.81 402.33 115.82 320.67 115.81 239.00 C 115.84 235.55 115.64 232.03 116.02 228.59 Z" fill="#ffffff" />
</svg>