<?xml version="1.0" encoding="UTF-8" standalone="no"?>
<!DOCTYPE svg PUBLIC "-//W3C//DTD SVG 1.1//EN" "http://www.w3.org/Graphics/SVG/1.1/DTD/svg11.dtd">
<svg xmlns="http://www.w3.org/2000/svg" version="1.1" viewBox="0 0 593 355" width="593.0pt" height="355.0pt">
<path d="M 0.00 0.00 L 593.00 0.00 L 593.00 355.00 L 0.00 355.00 L 0.00 0.00 Z" fill="#ffffff" />
<path d="M 393.30 27.57 C 395.18 29.44 394.80 31.57 395.08 34.00 C 395.65 43.36 396.30 52.71 396.97 62.06 C 416.84 84.03 436.84 105.90 456.47 128.06 C 450.04 133.28 443.71 138.68 437.04 143.60 C 418.78 117.84 400.76 91.86 382.68 65.97 C 384.98 57.27 387.33 48.59 389.70 39.92 C 390.80 35.82 391.70 31.51 393.30 27.57 Z" fill="#002147" />
<path d="M 551.18 27.69 C 553.21 28.83 553.33 31.00 554.02 33.03 C 555.76 40.14 557.85 47.14 559.64 54.24 C 560.59 58.10 562.12 61.99 562.57 65.95 C 561.57 68.27 559.78 70.31 558.38 72.39 C 543.95 92.95 529.57 113.56 515.17 134.14 C 512.98 137.24 510.96 140.62 508.34 143.38 C 501.65 138.66 495.34 133.24 489.06 127.98 C 506.56 108.19 524.48 88.75 542.09 69.07 C 544.16 66.66 546.84 64.44 548.38 61.67 C 549.77 50.43 549.57 38.90 551.18 27.69 Z" fill="#002147" />
<path d="M 109.98 56.97 C 126.00 57.04 142.06 56.97 158.07 57.01 C 160.78 56.77 162.53 58.94 164.53 60.43 C 167.39 62.99 170.81 65.18 173.29 68.10 C 173.69 71.02 173.48 74.05 173.51 77.00 C 173.49 100.00 173.50 123.00 173.50 146.00 C 173.47 149.37 173.69 152.79 173.35 156.14 C 171.16 159.17 167.60 161.27 164.91 163.88 C 162.71 165.65 161.17 167.61 158.05 167.38 C 140.11 167.37 122.13 167.40 104.20 167.35 C 100.40 164.21 96.61 161.06 92.87 157.86 C 92.72 129.24 92.88 100.61 92.79 71.99 C 92.92 70.15 92.56 68.55 94.14 67.26 C 97.67 64.08 101.33 60.89 105.10 58.01 C 106.57 56.82 108.20 57.08 109.98 56.97 Z" fill="#002147" />
<path d="M 178.93 57.31 C 182.22 56.82 185.68 57.01 189.00 56.99 C 199.00 57.00 209.00 57.02 219.00 56.97 C 220.90 56.98 222.91 56.96 224.78 57.32 C 225.98 61.98 225.14 67.21 225.40 72.00 C 225.25 74.27 225.85 77.37 224.53 79.31 C 221.88 79.74 219.11 79.55 216.43 79.60 C 216.44 101.53 216.45 123.46 216.43 145.39 C 223.35 145.36 230.27 145.38 237.19 145.37 C 237.19 140.73 237.11 136.11 237.35 131.47 C 243.86 130.93 250.46 131.30 257.00 131.16 C 259.40 131.21 262.06 130.95 264.38 131.64 C 265.18 134.26 264.83 137.28 264.90 140.00 C 264.76 149.05 265.09 158.13 264.70 167.18 C 262.47 167.29 260.23 167.38 258.00 167.38 C 235.00 167.37 212.00 167.37 189.00 167.38 C 185.63 167.36 182.15 167.56 178.81 167.10 C 178.16 164.88 178.31 162.30 178.28 160.00 C 178.34 155.13 178.20 150.36 178.52 145.52 C 181.64 145.37 184.75 145.37 187.88 145.35 C 187.88 123.34 187.85 101.34 187.89 79.34 C 184.84 79.33 181.80 79.31 178.76 79.12 C 178.50 71.95 178.05 64.42 178.93 57.31 Z" fill="#002147" />
<path d="M 273.99 56.98 C 295.96 57.03 318.13 56.98 340.06 57.00 C 343.35 56.73 345.99 59.68 348.58 61.41 C 351.51 63.74 355.11 65.63 357.60 68.42 C 358.11 71.21 357.84 74.18 357.89 77.00 C 357.85 102.31 357.88 127.75 357.88 153.06 C 357.74 154.41 358.03 155.73 356.82 156.65 C 352.94 159.86 348.72 162.69 344.70 165.74 C 342.78 167.17 341.45 167.62 339.02 167.52 C 317.01 167.48 294.96 167.50 272.95 167.51 C 271.82 167.37 269.06 167.75 269.23 165.95 C 268.92 159.47 268.70 152.61 269.21 146.15 C 272.13 145.36 275.47 145.63 278.50 145.60 C 278.49 123.60 278.51 101.60 278.50 79.60 C 275.47 79.51 272.16 79.86 269.21 79.09 C 268.67 74.78 269.02 70.34 268.91 66.00 C 268.95 63.19 268.76 60.18 269.38 57.43 C 270.80 56.90 272.49 57.12 273.99 56.98 Z" fill="#002147" />
<path d="M 121.19 79.55 C 129.16 79.57 137.13 79.55 145.11 79.57 C 145.15 101.54 145.12 123.52 145.12 145.50 C 137.14 145.51 129.16 145.49 121.18 145.51 C 121.20 123.53 121.19 101.54 121.19 79.55 Z" fill="#ffffff" />
<path d="M 307.00 79.56 C 313.87 79.57 320.75 79.55 327.62 79.57 C 327.63 101.51 327.62 123.44 327.63 145.38 C 320.75 145.37 313.88 145.38 307.00 145.38 C 307.00 123.44 307.00 101.50 307.00 79.56 Z" fill="#ffffff" />
<path d="M 482.45 126.38 C 483.07 134.19 482.85 142.12 482.98 149.96 C 477.37 154.04 471.79 158.17 466.22 162.32 C 464.44 163.66 462.54 164.77 460.54 165.76 C 461.86 160.52 464.46 155.65 466.61 150.57 C 467.33 148.71 468.29 147.19 467.75 145.12 C 466.48 138.83 464.80 132.57 463.79 126.23 C 469.96 124.41 476.27 124.90 482.45 126.38 Z" fill="#002147" />
<path d="M 370.33 129.59 C 374.16 129.28 378.13 130.25 381.99 130.77 C 397.21 133.17 412.49 135.22 427.67 137.81 C 424.68 147.73 421.95 157.80 418.49 167.56 C 405.13 157.65 392.18 147.17 378.97 137.06 C 375.95 134.67 372.73 132.55 370.33 129.59 Z" fill="#002147" />
<path d="M 574.42 132.61 C 572.39 134.57 570.24 136.29 567.92 137.89 C 556.56 145.85 545.28 153.92 533.98 161.96 C 530.93 164.10 527.98 166.49 524.73 168.31 C 523.32 165.91 522.93 163.41 522.23 160.75 C 520.43 153.27 518.40 145.84 516.69 138.33 C 530.36 136.58 544.09 135.39 557.78 133.80 C 563.25 133.30 568.97 132.23 574.42 132.61 Z" fill="#002147" />
<path d="M 433.87 145.90 C 438.66 154.71 442.50 164.07 446.94 173.07 C 448.22 175.87 450.06 178.82 450.06 181.93 C 450.35 188.26 450.59 194.59 450.85 200.91 C 450.42 201.14 449.99 201.36 449.56 201.58 C 442.75 192.99 436.20 184.19 429.43 175.56 C 428.04 173.59 425.95 171.56 425.23 169.24 C 426.01 165.92 427.44 162.75 428.51 159.52 C 430.22 155.02 431.39 150.02 433.87 145.90 Z" fill="#002147" />
<path d="M 509.22 145.92 C 512.90 153.50 515.07 161.91 517.86 169.87 C 510.67 179.03 503.50 188.21 496.39 197.44 C 495.09 199.12 493.58 200.57 491.92 201.90 C 491.83 195.61 492.38 189.31 492.63 183.02 C 492.48 178.08 495.99 173.44 497.88 168.87 C 501.79 161.29 504.95 153.30 509.22 145.92 Z" fill="#002147" />
<path d="M 520.91 179.66 C 522.06 181.76 522.93 183.95 523.62 186.24 C 525.90 193.84 528.27 201.42 530.56 209.02 C 528.61 211.99 526.64 214.95 524.65 217.90 C 527.44 222.10 530.79 226.22 532.91 230.79 C 533.76 234.93 533.75 239.33 533.67 243.54 C 531.80 242.06 530.30 239.96 528.22 238.85 C 526.28 237.99 524.03 238.15 521.89 237.98 C 523.41 240.18 525.06 242.29 526.57 244.50 C 528.81 247.84 529.26 252.10 528.56 255.99 C 528.19 257.04 528.59 258.61 527.14 258.69 C 525.14 258.00 523.30 256.78 521.46 255.74 C 522.85 260.96 524.02 266.23 525.18 271.51 C 523.45 275.57 521.74 279.59 519.64 283.49 C 518.34 280.07 517.60 276.54 515.85 273.29 C 515.54 277.86 515.84 282.45 515.62 287.02 C 514.92 293.31 511.68 298.07 507.80 302.83 C 504.00 307.40 500.56 312.32 496.49 316.65 C 495.38 312.86 494.99 308.99 494.48 305.10 C 491.84 306.92 489.13 308.68 486.63 310.70 C 483.62 312.97 482.99 317.36 480.10 319.96 C 477.56 322.20 475.43 324.61 473.37 327.29 C 470.19 324.58 467.25 321.60 464.03 318.93 C 461.02 316.73 460.73 312.55 457.99 310.12 C 455.73 308.09 453.24 306.30 450.87 304.40 C 450.46 308.48 450.70 312.53 450.56 316.62 C 445.49 312.40 441.49 306.84 436.92 302.05 C 434.53 299.08 430.88 296.38 430.40 292.49 C 429.19 286.29 429.61 279.72 429.03 273.42 C 427.31 276.23 426.39 279.33 425.13 282.34 C 423.78 279.77 422.28 277.04 421.62 274.19 C 422.13 268.24 423.68 262.36 424.48 256.42 C 421.93 257.50 419.38 258.53 416.76 259.43 C 416.15 255.56 415.78 251.66 415.34 247.77 C 418.43 244.83 420.75 241.30 423.63 238.19 C 420.95 238.50 418.27 238.75 415.59 239.06 C 414.07 240.34 412.52 241.58 410.86 242.69 C 411.35 237.35 411.37 230.73 414.10 226.01 C 416.59 223.22 419.62 220.88 422.26 218.22 C 420.20 215.15 417.74 212.21 416.05 208.91 C 416.04 206.76 416.82 204.54 417.38 202.47 C 419.11 196.76 420.60 190.99 422.18 185.24 C 422.78 183.67 422.75 182.18 424.58 181.58 C 426.34 186.82 426.75 192.49 428.43 197.74 C 433.77 202.69 440.51 206.34 446.16 210.98 C 447.32 211.84 447.41 212.57 447.44 213.97 C 447.61 220.65 447.59 227.32 447.77 234.00 C 447.69 236.43 448.21 238.59 446.77 240.70 C 443.98 245.16 441.01 249.52 438.18 253.96 C 443.25 261.21 448.31 268.45 453.40 275.68 C 466.96 275.72 480.52 275.77 494.08 275.87 C 498.87 268.06 503.72 260.29 508.47 252.46 C 505.35 248.27 502.15 244.11 499.15 239.82 C 497.45 237.88 498.27 234.43 498.12 232.00 C 498.45 225.24 497.98 218.34 498.67 211.63 C 504.33 206.54 511.10 202.45 517.11 197.72 C 518.40 191.75 518.87 185.42 520.91 179.66 Z" fill="#002147" />
<path d="M 30.97 194.44 C 49.31 194.40 67.69 194.49 86.02 194.40 C 88.00 194.52 89.83 194.11 91.46 195.43 C 95.46 198.39 99.29 201.62 103.10 204.83 C 103.04 212.32 103.43 219.89 102.78 227.36 C 93.51 227.56 84.12 227.64 74.85 227.31 C 74.67 223.78 74.67 220.24 74.67 216.70 C 64.82 216.67 54.97 216.72 45.12 216.67 C 45.13 238.26 45.12 259.85 45.13 281.43 C 54.88 281.44 64.63 281.43 74.38 281.44 C 74.37 276.50 74.38 271.57 74.37 266.63 C 67.74 266.48 61.03 266.92 54.42 266.43 C 53.41 264.68 53.66 262.94 53.59 261.00 C 53.64 255.55 53.55 250.09 53.76 244.64 C 59.11 244.20 64.60 244.41 70.00 244.38 C 76.51 244.54 83.14 244.04 89.62 244.59 C 94.17 247.61 98.82 251.56 102.76 255.35 C 103.60 261.44 102.91 267.84 103.12 274.00 C 102.91 280.15 103.60 286.54 102.77 292.62 C 100.00 295.82 96.21 298.24 93.02 301.03 C 91.47 302.27 90.19 303.35 88.06 303.18 C 70.07 303.22 52.00 303.15 33.99 303.22 C 32.14 303.11 30.45 303.35 28.91 302.14 C 25.34 299.41 21.79 296.49 18.37 293.58 C 16.46 292.10 17.02 290.15 16.85 288.01 C 16.91 261.01 16.86 233.96 16.87 206.96 C 17.03 205.50 16.70 204.04 17.94 203.01 C 20.19 200.90 22.75 199.10 25.15 197.15 C 27.02 195.77 28.47 194.29 30.97 194.44 Z" fill="#002147" />
<path d="M 124.97 194.41 C 140.32 194.46 155.68 194.46 171.03 194.41 C 172.53 194.49 174.48 194.26 175.77 195.16 C 178.92 197.28 181.72 199.94 184.76 202.24 C 185.85 203.24 187.65 204.31 188.07 205.79 C 188.46 209.16 188.22 212.61 188.26 216.00 C 188.25 241.43 188.25 266.87 188.26 292.30 C 184.33 295.72 180.42 299.21 176.26 302.33 C 174.95 303.36 173.57 303.10 172.01 303.21 C 155.67 303.18 139.33 303.17 122.99 303.22 C 121.27 303.11 119.27 303.35 117.86 302.22 C 115.13 300.28 112.61 298.06 110.02 295.95 C 108.73 294.75 107.35 294.04 107.48 292.04 C 107.36 264.43 107.50 236.60 107.41 208.96 C 107.56 207.35 107.14 205.81 108.52 204.68 C 112.07 201.47 115.86 198.47 119.60 195.50 C 121.19 194.16 123.03 194.52 124.97 194.41 Z" fill="#002147" />
<path d="M 211.78 194.87 C 223.82 194.43 235.95 194.83 248.01 194.67 C 249.56 194.97 252.35 194.03 252.60 196.19 C 253.09 202.83 252.79 209.64 252.66 216.31 C 251.48 216.47 250.30 216.62 249.12 216.78 C 255.77 238.23 262.54 259.65 269.16 281.12 C 270.81 281.37 272.45 281.60 274.06 282.03 C 274.70 288.32 274.35 294.81 274.30 301.13 C 274.59 303.03 272.39 303.12 271.06 303.18 C 262.71 303.26 254.35 303.13 246.00 303.21 C 243.18 303.21 240.07 303.37 237.32 302.70 C 236.75 296.15 236.82 288.61 237.28 282.05 C 238.78 281.60 240.29 281.39 241.85 281.11 C 241.69 280.42 241.53 279.73 241.37 279.03 C 236.11 278.98 230.84 278.97 225.58 279.05 C 225.34 279.80 225.10 280.55 224.86 281.30 C 226.58 281.45 228.31 281.60 230.03 281.79 C 230.15 287.88 230.19 293.98 230.12 300.07 C 230.10 301.54 229.97 303.23 228.08 303.14 C 217.71 303.28 207.32 303.15 196.95 303.20 C 195.26 303.05 193.01 303.43 192.97 301.07 C 192.88 294.85 192.52 288.42 193.25 282.24 C 194.80 281.80 196.42 281.64 198.03 281.43 C 204.08 260.06 210.20 238.71 216.19 217.33 C 214.66 217.02 213.07 216.82 211.59 216.33 C 210.91 211.97 211.34 207.41 211.15 203.00 C 211.24 200.41 210.71 197.26 211.78 194.87 Z" fill="#002147" />
<path d="M 277.35 195.36 C 280.47 194.72 283.83 194.95 287.00 194.92 C 309.00 194.95 331.00 194.94 353.00 194.93 C 356.27 194.96 359.65 194.73 362.88 195.23 C 364.16 196.98 363.56 199.94 363.72 202.00 C 363.47 210.83 364.08 219.79 363.42 228.58 C 360.52 229.58 357.04 229.11 354.00 229.21 C 349.35 229.06 344.57 229.54 339.97 228.85 C 339.23 224.87 339.64 220.64 339.56 216.59 C 337.95 216.58 336.35 216.56 334.75 216.54 C 334.76 238.16 334.73 259.78 334.76 281.40 C 337.18 281.74 341.67 280.60 343.46 282.42 C 343.85 288.84 343.89 296.17 343.42 302.58 C 339.55 303.75 335.03 303.01 331.00 303.19 C 320.02 302.99 308.90 303.59 297.96 302.90 C 297.02 300.16 297.44 296.87 297.35 294.00 C 297.47 290.21 297.09 286.30 297.61 282.54 C 299.18 280.62 303.59 281.71 305.88 281.38 C 305.86 259.78 305.88 238.18 305.87 216.57 C 304.27 216.56 302.66 216.55 301.06 216.54 C 301.00 220.60 301.36 224.84 300.66 228.85 C 297.85 229.37 294.85 229.18 292.00 229.21 C 286.90 229.14 282.01 229.47 276.95 228.66 C 276.92 219.77 276.97 210.89 276.91 202.00 C 276.92 199.82 276.89 197.49 277.35 195.36 Z" fill="#002147" />
<path d="M 135.87 216.69 C 143.85 216.70 151.83 216.65 159.80 216.72 C 159.83 238.34 159.79 259.96 159.82 281.58 C 151.84 281.54 143.86 281.57 135.88 281.56 C 135.87 259.94 135.88 238.31 135.87 216.69 Z" fill="#ffffff" />
<path d="M 489.46 246.18 C 489.54 248.54 490.47 251.51 488.07 253.00 C 484.33 256.06 480.36 258.86 476.55 261.84 C 475.67 265.50 474.85 269.14 473.46 272.64 C 471.46 269.21 470.96 265.27 469.37 261.72 C 465.83 257.84 460.82 255.21 457.54 251.12 C 457.81 249.34 458.31 247.64 458.78 245.90 C 463.76 249.32 468.36 253.33 473.12 257.06 C 477.35 253.94 481.56 250.80 485.80 247.70 C 487.02 246.93 487.91 245.95 489.46 246.18 Z" fill="#002147" />
<path d="M 233.19 252.71 C 234.13 255.68 235.05 258.67 235.98 261.65 C 234.11 261.63 232.25 261.61 230.39 261.58 C 231.31 258.62 232.24 255.66 233.19 252.71 Z" fill="#ffffff" />
<path d="M 457.59 283.05 C 468.77 283.08 479.94 283.06 491.12 283.06 C 490.31 285.17 489.50 287.29 488.69 289.40 C 478.92 289.27 469.16 289.30 459.39 289.23 C 458.81 287.16 458.22 285.10 457.59 283.05 Z" fill="#ffffff" />
</svg>